<svg xmlns="http://www.w3.org/2000/svg" xmlns:xlink="http://www.w3.org/1999/xlink" version="1.1" width="512" height="512"><rect id="backgroundrect" width="100%" height="100%" x="0" y="0" fill="none" stroke="none"/>


<g class="currentLayer"><title>Layer 1</title><g id="icomoon-ignore">
</g><path d="M464 64h-416c-26.512 0-48 21.488-48 48v288c0 26.496 21.488 48 48 48h416c26.512 0 48-21.504 48-48v-288c0-26.512-21.488-48-48-48zM43.856 415.84l-11.696-11.712 131.984-131.968 11.696 11.712-131.984 131.968zM468.144 415.84l-131.984-131.968 11.696-11.712 131.984 131.968-11.696 11.712zM272 309.2v10.8h-32v-10.8l-207.952-192.8 20.352-20.352 203.6 188.768 203.6-188.768 20.352 20.352-207.952 192.8z" id="svg_1" class="selected" fill="#000000" fill-opacity="1"/></g></svg>