<svg width="512" height="512" xmlns="http://www.w3.org/2000/svg">

 <g>
  <title>background</title>
  <rect fill="none" id="canvas_background" height="402" width="582" y="-1" x="-1"/>
 </g>
 <g>
  <title>Layer 1</title>
  <g id="icomoon-ignore"/>
  <path fill="#000000" id="svg_1" d="m192,192l88.553,0l0,45.391l1.266,0c12.32,-22.097 42.479,-45.391 87.421,-45.391c93.473,0 110.76,58.188 110.76,133.867l0,154.133l-92.305,0l0,-136.639c0,-32.592 -0.667,-74.513 -48.014,-74.513c-48.074,0 -55.41,35.493 -55.41,72.146l0,139.006l-92.271,0l0,-288z"/>
  <path fill="#000000" id="svg_2" d="m32,192l96,0l0,288l-96,0l0,-288z"/>
  <path fill="#000000" id="svg_3" d="m128,112c0,26.51 -21.49,48 -48,48s-48,-21.49 -48,-48c0,-26.51 21.49,-48 48,-48s48,21.49 48,48z"/>
 </g>
</svg>