<svg width="512" height="512" xmlns="http://www.w3.org/2000/svg">

 <g>
  <title>background</title>
  <rect fill="none" id="canvas_background" height="402" width="582" y="-1" x="-1"/>
 </g>
 <g>
  <title>Layer 1</title>
  <g id="icomoon-ignore"/>
  <path fill="#000000" id="svg_1" d="m512,113.2c-18.8,8.4 -39.1,14 -60.3,16.5c21.7,-13 38.3,-33.6 46.2,-58.1c-20.3,12 -42.8,20.8 -66.7,25.5c-19.2,-20.4 -46.5,-33.1 -76.7,-33.1c-58,0 -105,47 -105,105c0,8.2 0.9,16.2 2.7,23.9c-87.3,-4.4 -164.7,-46.2 -216.5,-109.8c-9,15.5 -14.2,33.6 -14.2,52.8c0,36.4 18.5,68.6 46.7,87.4c-17.2,-0.5 -33.4,-5.3 -47.6,-13.1c0,0.4 0,0.9 0,1.3c0,50.9 36.2,93.4 84.3,103c-8.8,2.4 -18.1,3.7 -27.7,3.7c-6.8,0 -13.3,-0.7 -19.8,-1.9c13.4,41.7 52.2,72.1 98.1,73c-36,28.2 -81.2,45 -130.5,45c-8.5,0 -16.8,-0.5 -25.1,-1.5c46.6,29.9 101.8,47.2 161.1,47.2c193.2,0 298.9,-160.1 298.9,-298.9c0,-4.6 -0.1,-9.1 -0.3,-13.6c20.5,-14.7 38.3,-33.2 52.4,-54.3z"/>
 </g>
</svg>